<svg xmlns="http://www.w3.org/2000/svg" width="92" height="47.598" viewBox="0 0 92 47.598">
  <path id="Path_711" d="M139.751,183.114H146.2l-.96,3.317a1.388,1.388,0,0,0,.136,1.24,1.217,1.217,0,0,0,1.01.436,2.993,2.993,0,0,0,2.629-2.048l.851-2.945H152.9a2.723,2.723,0,0,0,1.607-.606,2.862,2.862,0,0,0,1.037-1.443,1.373,1.373,0,0,0-.139-1.232,1.231,1.231,0,0,0-1.022-.442h-3.414l1.665-5.678h3.025a2.723,2.723,0,0,0,1.607-.606,2.9,2.9,0,0,0,1.035-1.443,1.385,1.385,0,0,0-.142-1.245,1.223,1.223,0,0,0-1.016-.442H153.72l1.049-3.482a1.379,1.379,0,0,0-.137-1.233,1.218,1.218,0,0,0-1.011-.437,2.992,2.992,0,0,0-2.629,2.048l-.935,3.1H143.6l1.05-3.483a1.38,1.38,0,0,0-.138-1.232,1.218,1.218,0,0,0-1.011-.437,2.993,2.993,0,0,0-2.629,2.048l-.935,3.1H136.9a2.646,2.646,0,0,0-1.588.6,2.974,2.974,0,0,0-1.045,1.461,1.388,1.388,0,0,0,.136,1.238,1.217,1.217,0,0,0,1.01.436h3.428l-1.666,5.678h-3.037a2.992,2.992,0,0,0-2.629,2.049,1.389,1.389,0,0,0,.136,1.238,1.217,1.217,0,0,0,1.011.436h3.425l-.96,3.317a1.383,1.383,0,0,0,.135,1.24,1.218,1.218,0,0,0,1.011.437,2.993,2.993,0,0,0,2.629-2.048Zm7.546-3.723h-6.453l1.666-5.678h6.453Zm48.355,14.1-7.531-38.8a2.5,2.5,0,0,0-2.615-2.092H113.963a2.6,2.6,0,0,0-2.615,2.092l-7.531,42.256-.1.314v.418a2.545,2.545,0,0,0,2.51,2.51h71.543a2.485,2.485,0,0,0,2.51-2.092l.314-1.569,5.02-28.032,4.5,22.906H187.6a2.615,2.615,0,1,0,0,5.23h6.067a2.646,2.646,0,0,0,1.988-3.138Zm-19.978,1.674H109.361l6.694-37.34h66.313Z" transform="translate(-103.713 -152.584)" fill="#fff" fill-rule="evenodd"/>
</svg>
