<svg xmlns="http://www.w3.org/2000/svg" width="30" height="29.882" viewBox="0 0 30 29.882">
  <g id="Group_343" data-name="Group 343" transform="translate(-2867.313 -391)">
    <path id="Path_703" data-name="Path 703" d="M144.788,60.711a5.977,5.977,0,0,1,5.629,4.125.922.922,0,0,0,1.187.548,5.757,5.757,0,0,1,2.263-.461,6.169,6.169,0,0,1,0,12.331,5.8,5.8,0,0,1-1.522-.2,8.94,8.94,0,0,0,1.02-3.2.954.954,0,0,0-.894-1.053.937.937,0,0,0-.894.822,6.758,6.758,0,0,1-13.464,0,.936.936,0,0,0-1-.812.955.955,0,0,0-.774,1.043,8.923,8.923,0,0,0,1.005,3.2,5.806,5.806,0,0,1-1.522.2,6.169,6.169,0,0,1,0-12.331,5.867,5.867,0,0,1,2.179.418.921.921,0,0,0,1.159-.548,6,6,0,0,1,5.629-4.081Z" transform="translate(2737.469 330.289)" fill="#0071bc" fill-rule="evenodd"/>
    <path id="Path_704" data-name="Path 704" d="M212.147,323.59a7.537,7.537,0,0,1-2.611.477c-.2,0-.387-.009-.584-.024v10.743c0,.492.307.775.584.775h18.051c.277,0,.584-.283.584-.775V324.043c-.193.015-.387.024-.584.024a7.556,7.556,0,0,1-2.611-.465,8.36,8.36,0,0,1-12.829-.012Zm.131,7.893h12.567c1.107,0,1.256,1.848,0,1.848H212.278C211.17,333.331,211.062,331.483,212.278,331.483Z" transform="translate(2663.75 85.321)" fill="#0071bc" fill-rule="evenodd"/>
  </g>
</svg>
