<svg xmlns="http://www.w3.org/2000/svg" width="44" height="44" viewBox="0 0 44 44">
  <g id="Group_370" data-name="Group 370" transform="translate(-348 -380)">
    <g id="Ellipse_73" data-name="Ellipse 73" transform="translate(348 380)" fill="none" stroke="#0071bc" stroke-width="3">
      <circle cx="22" cy="22" r="22" stroke="none"/>
      <circle cx="22" cy="22" r="20.5" fill="none"/>
    </g>
    <path id="Icon_ionic-ios-call" data-name="Icon ionic-ios-call" d="M25.049,21.078a17.782,17.782,0,0,0-3.715-2.486c-1.113-.535-1.521-.524-2.309.044-.656.474-1.08.915-1.835.75A10.948,10.948,0,0,1,13.5,16.658a10.869,10.869,0,0,1-2.728-3.687c-.16-.761.281-1.179.75-1.835.568-.788.584-1.2.044-2.309A17.43,17.43,0,0,0,9.083,5.112c-.81-.81-.992-.634-1.438-.474a8.185,8.185,0,0,0-1.317.7,3.973,3.973,0,0,0-1.582,1.67c-.314.678-.678,1.94,1.174,5.236a29.214,29.214,0,0,0,5.136,6.85h0l.006.006.006.006h0a29.328,29.328,0,0,0,6.85,5.136c3.3,1.852,4.558,1.488,5.236,1.174a3.906,3.906,0,0,0,1.67-1.582,8.185,8.185,0,0,0,.7-1.317C25.683,22.07,25.865,21.888,25.049,21.078Z" transform="translate(354.925 387.913)" fill="#0071bc"/>
  </g>
</svg>
