<svg xmlns="http://www.w3.org/2000/svg" width="92.904" height="94.706" viewBox="0 0 92.904 94.706">
  <path id="Path_709" d="M132.851,88.37a29.262,29.262,0,1,0-29.262-29.262A29.322,29.322,0,0,0,132.851,88.37Zm0-53.581a24.319,24.319,0,1,1-24.319,24.319A24.3,24.3,0,0,1,132.851,34.79ZM89.65,57.626a2.965,2.965,0,0,1,0,3.559l-1.68,2.373a8.277,8.277,0,0,0-1.285,6.425,7.923,7.923,0,0,0,3.954,5.239l2.471,1.384a2.986,2.986,0,0,1,1.582,3.164L94.2,82.538a7.721,7.721,0,0,0,1.68,6.327,8.038,8.038,0,0,0,5.832,2.966l2.867.1a2.965,2.965,0,0,1,2.768,2.175l.791,2.768a8.068,8.068,0,0,0,7.711,5.734,7.031,7.031,0,0,0,3.164-.692l2.669-1.087a3.061,3.061,0,0,1,3.46.791l1.878,2.175a7.939,7.939,0,0,0,11.962-.1l1.878-2.175a3.025,3.025,0,0,1,3.46-.791l2.669,1.087a8.054,8.054,0,0,0,10.775-5.239l.791-2.768a3.058,3.058,0,0,1,2.768-2.274l2.867-.2a7.966,7.966,0,0,0,5.832-3.064,8.123,8.123,0,0,0,1.582-6.327l-.494-2.768a3.065,3.065,0,0,1,1.483-3.164l2.471-1.384a8.154,8.154,0,0,0,3.954-5.239,7.861,7.861,0,0,0-1.384-6.425l-1.68-2.274a2.965,2.965,0,0,1,0-3.559l1.68-2.373a8.277,8.277,0,0,0,1.285-6.425,7.923,7.923,0,0,0-3.954-5.239l-2.571-1.385a2.986,2.986,0,0,1-1.582-3.164l.494-2.768a7.721,7.721,0,0,0-1.68-6.327,8.038,8.038,0,0,0-5.832-2.966l-2.867-.1a2.965,2.965,0,0,1-2.768-2.175l-.791-2.768a8.009,8.009,0,0,0-7.712-5.832,7.031,7.031,0,0,0-3.164.692l-2.669,1.087a3.275,3.275,0,0,1-3.46-.792l-1.878-2.175a7.939,7.939,0,0,0-11.962.1L124.645,16.7a3.025,3.025,0,0,1-3.46.791L118.515,16.4a8.054,8.054,0,0,0-10.775,5.239l-.791,2.768a3.058,3.058,0,0,1-2.768,2.274l-2.867.2a7.966,7.966,0,0,0-5.832,3.064A8.123,8.123,0,0,0,93.9,36.272l.494,2.768A3.065,3.065,0,0,1,92.912,42.2L90.44,43.587a8.154,8.154,0,0,0-3.954,5.239,7.939,7.939,0,0,0,1.384,6.425Zm1.779-7.612a2.786,2.786,0,0,1,1.483-1.977l2.471-1.384a7.9,7.9,0,0,0,3.954-8.4l-.394-2.867a3.128,3.128,0,0,1,.593-2.471,3.209,3.209,0,0,1,2.175-1.186l2.867-.2a7.925,7.925,0,0,0,7.216-5.832l.791-2.768a3.175,3.175,0,0,1,2.966-2.274,4.939,4.939,0,0,1,1.186.2l2.669,1.087a8.062,8.062,0,0,0,3.064.593,7.9,7.9,0,0,0,6.03-2.768l1.878-2.175a2.954,2.954,0,0,1,2.274-1.087,3.216,3.216,0,0,1,2.274.989l1.878,2.175a7.942,7.942,0,0,0,5.932,2.669,7.031,7.031,0,0,0,3.164-.692l2.669-1.087h1.087a3.086,3.086,0,0,1,2.966,2.175l.791,2.768a7.926,7.926,0,0,0,7.316,5.734l2.867.1a2.954,2.954,0,0,1,2.274,1.087,2.666,2.666,0,0,1,.593,2.373l-.494,2.768a8.033,8.033,0,0,0,4.152,8.4l2.471,1.384a2.782,2.782,0,0,1,1.483,1.977,3.085,3.085,0,0,1-.494,2.471L172,54.166a7.864,7.864,0,0,0,.1,9.293l1.68,2.274a3.085,3.085,0,0,1,.494,2.471,2.786,2.786,0,0,1-1.483,1.977l-2.471,1.384a7.9,7.9,0,0,0-3.954,8.4l.494,2.768a3.128,3.128,0,0,1-.593,2.471,3.209,3.209,0,0,1-2.175,1.186l-2.867.2a7.925,7.925,0,0,0-7.216,5.832l-.791,2.768a3.175,3.175,0,0,1-2.966,2.274,4.939,4.939,0,0,1-1.186-.2L146.4,96.179a8.061,8.061,0,0,0-3.064-.593,7.9,7.9,0,0,0-6.03,2.768l-1.878,2.175a2.954,2.954,0,0,1-2.274,1.087,3.216,3.216,0,0,1-2.274-.989L129,98.453a7.942,7.942,0,0,0-5.932-2.669,7.031,7.031,0,0,0-3.164.692l-2.669,1.087a4.8,4.8,0,0,1-1.187.1,3.086,3.086,0,0,1-2.966-2.175l-.791-2.768a7.926,7.926,0,0,0-7.316-5.734l-2.768-.1A2.954,2.954,0,0,1,99.931,85.8a2.666,2.666,0,0,1-.593-2.373l.494-2.768a8.033,8.033,0,0,0-4.152-8.4l-2.471-1.384A2.782,2.782,0,0,1,91.726,68.9a3.085,3.085,0,0,1,.494-2.471l1.68-2.373a7.864,7.864,0,0,0-.1-9.293l-1.68-2.274a2.927,2.927,0,0,1-.693-2.471Zm31.832,3.757a7.55,7.55,0,0,1,7.118-7.711v-2.57a2.471,2.471,0,1,1,4.943,0v2.57h3.164a2.471,2.471,0,0,1,0,4.943h-7.909a2.786,2.786,0,0,0,0,5.536h4.448a7.726,7.726,0,0,1,.3,15.422v2.669a2.471,2.471,0,0,1-4.943,0V71.96h-3.361a2.471,2.471,0,1,1,0-4.943h8.007a2.786,2.786,0,0,0,0-5.536h-4.448C126.523,61.58,123.261,58.12,123.261,53.77Z" transform="translate(-86.299 -11.755)" fill="#fff"/>
</svg>
