<svg xmlns="http://www.w3.org/2000/svg" width="14.354" height="12.756" viewBox="0 0 14.354 12.756">
  <path id="Icon_awesome-edit" d="M10.033,2.078,12.28,4.326a.244.244,0,0,1,0,.344L6.838,10.112l-2.313.257a.485.485,0,0,1-.536-.536L4.246,7.52,9.689,2.078A.244.244,0,0,1,10.033,2.078Zm4.037-.571L12.853.291a.975.975,0,0,0-1.376,0l-.882.882a.244.244,0,0,0,0,.344l2.248,2.248a.244.244,0,0,0,.344,0l.882-.882a.975.975,0,0,0,0-1.376Zm-4.5,7.124v2.537H1.595V3.194H7.321a.306.306,0,0,0,.212-.087l1-1A.3.3,0,0,0,8.318,1.6H1.2A1.2,1.2,0,0,0,0,2.8v8.772a1.2,1.2,0,0,0,1.2,1.2H9.968a1.2,1.2,0,0,0,1.2-1.2V7.635a.3.3,0,0,0-.511-.212l-1,1A.306.306,0,0,0,9.569,8.632Z" transform="translate(0 -0.007)" fill="#666"/>
</svg>
