<svg xmlns="http://www.w3.org/2000/svg" width="17.944" height="17.944" viewBox="0 0 17.944 17.944">
  <path id="Icon_awesome-arrow-circle-right" data-name="Icon awesome-arrow-circle-right" d="M9.535.563A8.972,8.972,0,1,1,.563,9.535,8.971,8.971,0,0,1,9.535.563Zm-1.046,5.2,2.731,2.619H4.614a.866.866,0,0,0-.868.868v.579a.866.866,0,0,0,.868.868h6.606L8.489,13.312a.869.869,0,0,0-.014,1.241l.4.394a.865.865,0,0,0,1.226,0l4.8-4.8a.865.865,0,0,0,0-1.226l-4.8-4.8a.865.865,0,0,0-1.226,0l-.4.394a.874.874,0,0,0,.014,1.245Z" transform="translate(-0.563 -0.563)" fill="#0071bc"/>
</svg>
