<svg xmlns="http://www.w3.org/2000/svg" width="227.888" height="208.423" viewBox="0 0 227.888 208.423">
  <g id="Group_402" data-name="Group 402" transform="translate(-100.057 -254.577)">
    <ellipse id="Ellipse_120" data-name="Ellipse 120" cx="110.763" cy="3.659" rx="110.763" ry="3.659" transform="translate(106.418 455.454)" fill="#69afd1" opacity="0.5"/>
    <path id="Path_764" data-name="Path 764" d="M1194.612,411.21s-.235,3.493-.774,8.638c-.094.873-.192,1.8-.3,2.761-.431,3.892-1.016,8.425-1.766,12.984-.3,1.819-.623,3.657-.975,5.437-.192.945-.379,1.853-.575,2.763a77.31,77.31,0,0,1-2.633,9.553,8.948,8.948,0,0,1-.454,1.394,10.581,10.581,0,0,1-4.814,4.92,16.768,16.768,0,0,1-4.111,1.44,63.382,63.382,0,0,1-28.261-.352,13.5,13.5,0,0,1-6.534-3.4,10.548,10.548,0,0,1-2.212-3.238c-.058-.135-.117-.279-.176-.422-2.418-5.973-3.852-19.76-4.778-25.1-.359-2.093-.64-4.115-.846-6.013-.188-1.636-.32-3.162-.406-4.58a53.978,53.978,0,0,1-.168-7.369c.018-.671,3.526-1.229,9.157-1.6,5.377-.357,12.711-.531,20.783-.455,12.241.117,22.752.793,27.35,1.661C1193.723,410.537,1194.611,410.867,1194.612,411.21Z" transform="translate(-1002.495 -73.888)" fill="#666"/>
    <path id="Path_765" data-name="Path 765" d="M1154.328,443.107c-.554-7.127-1.14-14.41.316-21.472.614-2.982-3.923-4.519-4.546-1.5-1.556,7.549-1.146,15.1-.552,22.733C1149.781,445.892,1154.566,446.179,1154.328,443.107Z" transform="translate(-1009.951 -79.092)" fill="#888"/>
    <path id="Path_766" data-name="Path 766" d="M1386.328,276.8h-24.443a5.428,5.428,0,0,1-5.437-5.421v-24.62a6.349,6.349,0,0,0-6.344-6.351H1321.54c-.112,0-.216,0-.329.008a6.356,6.356,0,0,0-6.022,6.343v24.62a5.426,5.426,0,0,1-5.429,5.421h-24.443c-.08,0-.168,0-.248.008a9.827,9.827,0,0,0-9.592,9.84V435.1a9.841,9.841,0,0,0,9.84,9.84h101.012a9.847,9.847,0,0,0,9.84-9.84V286.644A9.848,9.848,0,0,0,1386.328,276.8Zm-50.514-10.433a8.5,8.5,0,0,1-2.759-.449,8.743,8.743,0,0,1,0-16.592,8.5,8.5,0,0,1,2.759-.449,8.745,8.745,0,1,1,0,17.49Z" transform="translate(-1076.179 14.172)" fill="#b7605c"/>
    <path id="Path_767" data-name="Path 767" d="M1384.56,286.308a9.84,9.84,0,0,0-9.832-9.495h-24.443a5.43,5.43,0,0,1-5.437-5.429v-24.62a6.342,6.342,0,0,0-6.343-6.343H1309.94a6.348,6.348,0,0,0-6.351,6.343v24.62a5.414,5.414,0,0,1-5.293,5.421.732.732,0,0,1-.137.008h-24.443a9.832,9.832,0,0,0-6.808,2.719,9.662,9.662,0,0,0-1.283,1.516,10.4,10.4,0,0,0-1.179,2.277v.008a9.955,9.955,0,0,0-.473,1.909,10.187,10.187,0,0,0-.1,1.411V435.107a9.836,9.836,0,0,0,9.84,9.84h101.012a9.831,9.831,0,0,0,9.663-8,9.237,9.237,0,0,0,.177-1.837V286.653C1384.568,286.533,1384.568,286.421,1384.56,286.308Zm-60.345-37.426a8.745,8.745,0,1,1-8.741,8.749A8.734,8.734,0,0,1,1324.215,248.882Z" transform="translate(-1070.104 14.163)" fill="#f9bf87"/>
    <path id="Path_768" data-name="Path 768" d="M1263.871,525.308a27.832,27.832,0,0,0,7.769,5.992c9.42,4.917,21.726,7.321,26.363,18.137,2.039,4.765,1.481,9.157-.593,13.778-3,6.72-2.869,13.312,1.269,19.609,3.2,4.866,7.947,8.413,12.932,11.315h-7.7a33.714,33.714,0,0,1-10.249-11.569,23.174,23.174,0,0,1-2.251-15.488c.652-2.81,2.234-5.163,3.14-7.871a11.836,11.836,0,0,0-1.642-10.385c-6.372-9.783-20.058-10.655-29.037-17.527Z" transform="translate(-1070.101 -135.028)" fill="#ffd0a9"/>
    <path id="Path_769" data-name="Path 769" d="M1263.871,584.885c3.233.694,6.39,1.109,8.717,1.507,5.73.982,10.859,2.607,13.135,8.472,2.64,6.779,0,13.668-.466,20.549a14.153,14.153,0,0,0,2.861,9.927H1282.9c-.195-.364-.372-.736-.542-1.117-3.335-7.626.668-15.3.313-23.1-.245-5.366-2.717-8.928-8.1-10.1-3.563-.77-7.152-1.3-10.706-2.107Z" transform="translate(-1070.101 -166.228)" fill="#ffd0a9"/>
    <path id="Path_770" data-name="Path 770" d="M1285.808,316.814h7.126c4.57,2.48,9.86,3.478,14.058,6.677,3.766,2.869,3.648,7.812,1.642,11.73-2.446,4.782-6.847,7.371-11.747,9.047-4.341,1.49-6.593,4-5.611,8.709.694,3.343,2.556,6.449,4.324,9.318,3.462,5.6,8.235,10.765,10.9,16.817,4.629,10.477-9.716,13.812-17.087,12.8a61.676,61.676,0,0,1-18.154-5.687,64.663,64.663,0,0,1-7.388-4.181v-5.391a92.174,92.174,0,0,0,8.2,5.264c6.136,3.115,13.347,5.738,20.287,6.051,2.911.136,6.17-.16,8.548-2.014,3.791-2.954.855-6.914-1.185-10.021-3.334-5.086-7.126-9.894-9.944-15.3-2.116-4.062-3.978-8.928-2.505-13.516,1.371-4.291,5.171-5.73,9.056-7.118,3.259-1.168,6.161-2.861,8.049-5.873a7.1,7.1,0,0,0,1.354-4.41c-.279-2.869-3.233-3.927-5.637-4.917-4.731-1.938-9.512-3.707-13.4-7.151Q1286.239,317.245,1285.808,316.814Z" transform="translate(-1070.101 -25.843)" fill="#ffd0a9"/>
    <path id="Path_771" data-name="Path 771" d="M1265.623,325.716c.22.212.448.423.677.626,4.35,3.826,9.919,5.036,14.912,7.71,2.988,1.6,7.228,4.342,5.2,8.286-2.04,3.969-7.05,5.12-10.613,7.084-6.77,3.715,1.008,9.724.948,15.149a6.62,6.62,0,0,1-6.508,6.526,13.975,13.975,0,0,1-6.364-1.278v-4.435a12.082,12.082,0,0,0,5.865,1.523c6.221-.355-1.032-9.8-1.269-13.135-.228-3.309,1.54-5.8,4.266-7.49,1.684-1.05,3.6-1.65,5.374-2.531a10.3,10.3,0,0,0,3.258-2.065c1.261-1.608.525-2.1-1.092-3.309-3.766-2.835-9.005-3.6-13.034-6.1a28.473,28.473,0,0,1-3.267-2.37,9.482,9.482,0,0,1,.474-1.9v-.009A10.178,10.178,0,0,1,1265.623,325.716Z" transform="translate(-1070.101 -30.505)" fill="#ffd0a9"/>
    <path id="Path_772" data-name="Path 772" d="M1418,542.64c4.833,2.184,9.3,5.45,13.863,8.464v4.824c-4.646-2.928-9.166-6.245-14.066-8.708-3.276-1.65-7.092-3.216-10.825-3.182-3.91.034-5.882,4.079-7.676,7.041-3.174,5.222-4.6,11.375-7.9,16.469-2.767,4.283-7.27,6.187-12.272,6.2-5.3.017-15.979-4.977-19.745.482-4,5.8,2.861,13.761,6.6,17.62a126.121,126.121,0,0,0,10.774,9.834h-6.492q-3.009-2.628-5.856-5.425c-4-3.927-8.167-8.505-9.657-14.058-1-3.724-.829-8.116,1.777-11.171,2.928-3.428,7.575-3.7,11.747-3.131,6.381.863,15.005,4.2,19.474-2.488,3.063-4.6,4.375-10.418,7.16-15.243,2.133-3.69,4.773-8.853,9.242-10.071C1408.608,538.882,1414,540.837,1418,542.64Z" transform="translate(-1117.4 -142.577)" fill="#ffd0a9"/>
    <path id="Path_773" data-name="Path 773" d="M1460.144,603.829v5.036a53.873,53.873,0,0,0-7.153-4.435c-4.8-2.3-11.058-2.133-13.208,3.625-1.179,3.135.409,6.736-1.275,9.752-2.342,4.218-6.9,4.074-11.227,3.176-.249-.048-.5-.1-.738-.161-1.845-.409-3.617-.93-5.125-1.251-2.237-.481-4.948-.778-6.928.626-3.064,2.181-1.636,5.317.152,7.923.08.112.152.224.24.329a37.906,37.906,0,0,0,3.336,4.1h-5.831c-3.632-4.507-5.95-9.736-2.51-14.026,2.382-2.951,6.479-3.857,10.08-3.464,1.9.208,4.844,1.283,7.626,1.836,3.745.762,7.209.61,7.506-3.793.209-3.007.281-5.558,1.411-7.923a10.735,10.735,0,0,1,2.35-3.207,12.281,12.281,0,0,1,10.489-3.168C1453.36,599.41,1456.816,601.575,1460.144,603.829Z" transform="translate(-1145.68 -173.436)" fill="#ffd0a9"/>
    <path id="Path_774" data-name="Path 774" d="M1496.13,642.839v2.285a9.247,9.247,0,0,1-.177,1.837,16.081,16.081,0,0,0-4.547-1.2c-4.643-.425-7.971,4.627-9.944,9.2h-4.555c2.069-5.469,5.662-11.484,11.2-13.152C1490.925,640.97,1493.555,641.748,1496.13,642.839Z" transform="translate(-1181.666 -195.854)" fill="#ffd0a9"/>
    <path id="Path_775" data-name="Path 775" d="M1431.807,390.087v4.426a44.337,44.337,0,0,0-6.974-1.693c-8.828-1.388-21.582-.22-25.06,9.581-2.514,7.05.576,13.8.068,20.871-.466,6.441-5.578,11.189-11.062,13.99-6.787,3.479-14.244,2.6-21.353,4.774-4.181,1.278-7.888,3.8-8.895,8.319a9.94,9.94,0,0,0,6.2,11.239c7.972,3.038,16.884-1.54,22.707-6.711,5.078-4.5,9.927-8.1,16.927-8.616,10.4-.77,19.135,4.4,27.438,10.122v5.061c-5.645-4.045-11.4-7.972-18.061-9.876-4.714-1.346-9.911-1.727-14.574.068-4.706,1.82-7.973,5.882-11.874,8.887-9.75,7.515-31.966,10.139-33.185-7.067-.465-6.677,3.758-12.2,9.775-14.659,8.8-3.605,18.7-1.43,26.609-7.668,2.488-1.963,4.545-4.206,5.027-7.481.364-2.48-.178-4.96-.516-7.405a39.141,39.141,0,0,1-.339-10.139c.8-6.923,4.4-12.509,10.859-15.4C1413.9,386.947,1423.115,387.413,1431.807,390.087Z" transform="translate(-1117.342 -63.113)" fill="#ffd0a9"/>
    <path id="Path_776" data-name="Path 776" d="M1490.049,428.286a27.652,27.652,0,0,1,5.307,1.126v4.655c-.525-.2-1.05-.4-1.574-.575-7.109-2.437-15.15.338-13.939,9.089,1.143,8.226,8.006,13.854,15.513,17.908V465.1c-10.706-5.518-21.505-13.922-19.737-26.16C1476.669,431.655,1482.932,427.542,1490.049,428.286Z" transform="translate(-1180.891 -84.174)" fill="#ffd0a9"/>
    <path id="Path_777" data-name="Path 777" d="M1396.487,264.806v5.044a35.936,35.936,0,0,0-5.12,3.9c-6.178,5.712-5.612,13.685-3.369,21.141,1.456,4.858,3.7,10.037.44,14.675-3,4.274-8.133,6.525-12.526,9.022-5.07,2.877-13.059,9.512-7.609,15.792,4.629,5.34,13.922,3.978,19.4.686,9.741-5.865,11.189-19.855,22.149-24.518,5.188-2.209,10.841-1.371,16.148-.068a104.773,104.773,0,0,1,10.207,3.072v4.308c-6.61-2.632-13.99-4.994-20.541-4.444-8.937.754-12.805,9.7-17.13,16.258-6.187,9.369-19.542,16.935-30.442,10.1-10.6-6.652-4.41-18.645,3.944-23.824,3.038-1.887,6.356-3.326,9.284-5.4,4.265-3.013,5.171-6.348,3.664-11.231-1.794-5.814-3.58-11.654-2.556-17.807C1383.681,273.946,1389.606,268.614,1396.487,264.806Z" transform="translate(-1121.74 1.393)" fill="#ffd0a9"/>
    <path id="Path_778" data-name="Path 778" d="M1451.433,316.814h4.2a9.178,9.178,0,0,0-.06,1.286c.135,6.415,7.583,7.067,12.365,7.033a68.215,68.215,0,0,1,14.794,1.176c.009.118.009.229.009.347v3.919a46.738,46.738,0,0,0-11.7-1.269c-5.341.017-11.062.465-15.564-2.987A9.768,9.768,0,0,1,1451.433,316.814Z" transform="translate(-1168.273 -25.843)" fill="#ffd0a9"/>
    <path id="Path_779" data-name="Path 779" d="M1355.543,240.41h5.823a11.1,11.1,0,0,0-1.2,1.016c-2.607,2.539-3.225,5.941-3.7,9.4-.618,4.435-1.278,9.42-5.053,12.39a9.139,9.139,0,0,1-4.155,1.837v-4.02c3.622-1.109,4.79-9.157,5.222-12.111A19.565,19.565,0,0,1,1355.543,240.41Z" transform="translate(-1113.77 14.169)" fill="#ffd0a9"/>
    <path id="Path_780" data-name="Path 780" d="M1187.134,489.726c-8.065,22.343-23.454,32.153-23.454,32.153l-.085,5.613-26.374-.394-29.323-.445.086-5.613s-25.387-17.264-26.407-56.266c-.032-.914-.045-1.831-.038-2.761-.005-1.743.057-3.548.16-5.378l-.528-.014a3.362,3.362,0,0,1-2.289-5.769,3.4,3.4,0,0,1,2.388-.946l34.868.523,62.765.955,13.63.2a3.362,3.362,0,0,1,2.356,1.022,3.3,3.3,0,0,1,.948,2.38,3.373,3.373,0,0,1-3.407,3.321l-.546-.01q.1,3.159-.022,6.142A82.387,82.387,0,0,1,1187.134,489.726Z" transform="translate(-972.692 -95.541)" fill="#0071bc"/>
    <path id="Path_781" data-name="Path 781" d="M1195.906,471.837a82.363,82.363,0,0,1-4.733,25.288,59.621,59.621,0,0,0-16.435-14.317c-10.01-6.051-23.785-11.017-42.75-13.213-12.9-1.5-28.19-1.717-46.328-.137,0,0-.023-.016-.078-.048-.005-1.745.053-3.544.159-5.381l110.187,1.666Q1196.021,468.853,1195.906,471.837Z" transform="translate(-976.732 -102.937)" fill="#b3ccff" opacity="0.5"/>
    <rect id="Rectangle_352" data-name="Rectangle 352" width="55.706" height="5.618" transform="translate(149.459 420.743) rotate(-12.724)" fill="#5a8e38" opacity="0.5"/>
    <path id="Path_782" data-name="Path 782" d="M1194.748,500.969a3.632,3.632,0,0,1-3.631,3.639h-.584q.152,3.415.076,6.644a89.1,89.1,0,0,1-4.705,27.429c-8.353,24.3-24.84,35.157-24.84,35.157v6.077H1100.8v-6.077s-29.046-19.11-29.562-63.407c-.034-1.887,0-3.834.084-5.823h-.575a3.639,3.639,0,0,1-2.573-6.2,3.686,3.686,0,0,1,2.573-1.066h120.365a3.635,3.635,0,0,1,2.564,1.066A3.582,3.582,0,0,1,1194.748,500.969Z" transform="translate(-967.064 -120.381)" fill="#666"/>
    <path id="Path_783" data-name="Path 783" d="M1195.127,519.245a89.1,89.1,0,0,1-4.705,27.429,64.508,64.508,0,0,0-18.01-15.217c-10.926-6.381-25.907-11.527-46.455-13.592-13.973-1.413-30.519-1.4-50.111.61,0,0-.025-.017-.084-.051-.034-1.887,0-3.834.084-5.823H1195.05Q1195.2,516.016,1195.127,519.245Z" transform="translate(-971.583 -128.374)" fill="#888"/>
    <path id="Path_784" data-name="Path 784" d="M1115.557,572.552a46.832,46.832,0,0,1-17.515-36.749c.023-5.436-8.435-5.75-8.458-.29a55.845,55.845,0,0,0,21.453,44.2C1115.312,583.091,1119.788,575.9,1115.557,572.552Z" transform="translate(-978.828 -138.307)" fill="#888"/>
    <rect id="Rectangle_353" data-name="Rectangle 353" width="60.259" height="6.077" transform="translate(133.74 453.457)" fill="#888" opacity="0.5"/>
    <path id="Path_785" data-name="Path 785" d="M1463.113,586.32c-2.147-4.629-7.734-5.925-12.349-6.431-4.2-.46-4.164,6.111,0,6.567,4.219.462,6.682,1.778,6.924,6.27a31.377,31.377,0,0,1-.923,9.489c-1.905,7.44-6.92,8.547-13.894,8.61-4.224.039-4.236,6.606,0,6.567,4.891-.044,9.95-.335,14.084-3.239,4.327-3.039,5.96-8.347,6.8-13.34C1464.491,596.4,1465.06,590.518,1463.113,586.32Z" transform="translate(-1162.179 -163.6)" fill="#0071bc"/>
    <path id="Path_786" data-name="Path 786" d="M1405.5,562.557s-.2,3.643-.7,8.993c-.422,4.606-1.062,10.481-1.957,16.4-.3,1.9-.605,3.809-.956,5.665-.184.981-.368,1.935-.561,2.881a80.715,80.715,0,0,1-2.629,9.964,9.518,9.518,0,0,1-.447,1.454,10.978,10.978,0,0,1-4.948,5.174,17.243,17.243,0,0,1-4.265,1.549,65.716,65.716,0,0,1-29.387-.025c-4.072-.947-7.416-2.944-9.175-6.8-.061-.14-.131-.289-.192-.438-2.582-6.183-4.242-20.5-5.265-26.043-.4-2.181-.717-4.273-.953-6.243-.218-1.7-.367-3.293-.48-4.764a55.812,55.812,0,0,1-.261-7.662c.009-.692,3.652-1.321,9.5-1.767,5.6-.436,13.214-.706,21.611-.721,12.732-.023,23.669.557,28.458,1.4C1404.568,561.873,1405.5,562.207,1405.5,562.557Z" transform="translate(-1111.687 -153.288)" fill="#0071bc"/>
    <path id="Path_787" data-name="Path 787" d="M1360.271,602.66c-1.577-8.849-3.214-17.888-2.27-26.9.4-3.807-5.469-5.167-5.873-1.315-1.01,9.638.441,19.038,2.13,28.513C1354.928,606.71,1360.951,606.475,1360.271,602.66Z" transform="translate(-1116.146 -159.554)" fill="#5a9edd"/>
  </g>
</svg>
