<svg xmlns="http://www.w3.org/2000/svg" width="91.999" height="54.967" viewBox="0 0 91.999 54.967">
  <g id="Group_367" transform="translate(-3204.03 1259)">
    <path id="Path_713" d="M224.458,122.08A27.338,27.338,0,1,0,251.8,149.418,27.368,27.368,0,0,0,224.458,122.08Zm0,49.054a21.715,21.715,0,1,1,21.715-21.715A21.742,21.742,0,0,1,224.458,171.134Z" transform="translate(3026.396 -1380.886)" fill="#fff"/>
    <path id="Path_714" d="M351.5,205.878h-7.077v-9.307a2.811,2.811,0,0,0-5.623,0v12.118a2.813,2.813,0,0,0,2.811,2.811H351.4a2.812,2.812,0,0,0,.1-5.622Z" transform="translate(2909.242 -1440.157)" fill="#fff"/>
    <path id="Path_715" d="M556.332,121.384a15.7,15.7,0,0,0-9.307,13.766l-.485,12.7a3.953,3.953,0,0,0,3.975,4.072h1.551l-2.909,18.807a4.651,4.651,0,0,0,4.653,5.429,4.758,4.758,0,0,0,4.75-4.75V122.84a1.572,1.572,0,0,0-2.23-1.455Z" transform="translate(2737.469 -1380.19)" fill="#fff"/>
    <path id="Path_716" d="M98.424,120.958a1.634,1.634,0,0,0-1.648,1.648v12.7a.868.868,0,0,1-.872.872H94.838a.868.868,0,0,1-.872-.872V122.7a1.648,1.648,0,1,0-3.3,0v12.7a.868.868,0,0,1-.872.872H88.73a.869.869,0,0,1-.872-.873V122.7a1.634,1.634,0,0,0-1.648-1.648,1.7,1.7,0,0,0-1.648,1.648v14.929a3.992,3.992,0,0,0,3.975,3.975h.872L87.47,170.884a4.766,4.766,0,0,0,4.75,5.041h.1a4.766,4.766,0,0,0,4.75-5.041l-1.745-29.374h.872a3.992,3.992,0,0,0,3.975-3.975V122.7a1.8,1.8,0,0,0-1.745-1.745Z" transform="translate(3119.469 -1379.958)" fill="#fff"/>
  </g>
</svg>
